PathFileType	4	(X/Y/Z)	/home/abdul/Desktop/myosuite/custom_workspace/IK/output/S5_12_3.trc
DataRate	CameraRate	NumFrames	NumMarkers	Units	OrigDataRate	OrigDataStartFrame	OrigNumFrames
200.0	200.0	50	3	mm	200.0	169	1350
Frame#	Time	V_Shoulder			V_Elbow			V_Wrist		
		X1	Y1	Z1	X2	Y2	Z2	X3	Y3	Z3

169	0.84	-1.0714770370248619	730.9350566719904	243.2528861560767	-147.7664641068502	552.3511933646473	32.28754420696384	-40.25278791315587	334.38274194236936	67.02444251669272
170	0.845	-1.0237081676677038	730.7745459619509	243.2551252902872	-147.533859144346	552.1312627917346	32.09378189627619	-39.99610394609921	334.1585802006658	66.52644966788446
171	0.85	-0.9772894824230572	730.610895043921	243.25779242053613	-147.30605670268164	551.9143773698207	31.897575382519054	-39.75681329304191	333.9317253026504	66.03489703899376
172	0.855	-0.9322171413899962	730.444359762535	243.26090011542064	-147.08317717715585	551.7007578448663	31.699206425409926	-39.53448738174534	333.70271110878275	65.55028365614868
173	0.86	-0.8884865084390542	730.2751981693627	243.26445768216453	-146.8653253512423	551.4906145683938	31.49895088719299	-39.328685439998246	333.4720576081999	65.07305545890607
174	0.865	-0.8460921853118683	730.1036698731186	243.26847122001905	-146.65259060737188	551.2841472158229	31.297078266031473	-39.138956069733155	333.24026947735655	64.60360521712454
175	0.87	-0.8050280476830073	729.930035389756	243.27294368239322	-146.44504719808435	551.0815445408135	31.093851266315543	-38.96483881084207	333.0078347162983	64.14227265062785
176	0.875	-0.7652872831135994	729.754555494345	243.2778749474011	-146.24275457597213	550.8829841658536	30.88952540640842	-38.8058656885548	332.7752233674196	63.68934474879184
177	0.88	-0.7268624308183185	729.5774905766344	243.2832618964935	-146.04575778059169	550.688632409235	30.68434866413643	-38.66156273835362	332.54288632127424	63.24505628661865
178	0.885	-0.6897454231592309	729.3991000021723	243.28909850082005	-145.85408788028298	550.4986441484543	30.478561160116396	-38.53145150253248	332.31125421371104	62.80959053331795
179	0.89	-0.6539276287720233	729.219641480851	243.29537591495037	-145.66776246660896	550.313162719988	30.272394878808115	-38.41505049266983	332.08073641829634	62.38308014889736
180	0.895	-0.6193998972222454	729.0393704447173	243.30208257756726	-145.4867861989108	550.1323198552889	30.066073426981596	-38.311876612468296	331.851720137661	61.9656082637742
181	0.9	-0.5861526050814158	728.8585394368564	243.30920431872673	-145.3111513962695	549.9562356527601	29.85981182909978	-38.2214465356237	331.62456959707333	61.55720973595641
182	0.905	-0.5541757033052184	728.6773975131229	243.31672447326892	-145.14083867397062	549.7850185853645	29.65381635893919	-38.14327803361713	331.3996253431901	61.15787257990413
183	0.91	-0.5234587657885861	728.4961896584574	243.32462399995043	-144.97581762138924	549.6187655434375	29.448284406603644	-38.07689124857809	331.1772036505813	60.767539560772846
184	0.915	-0.4939910389652284	728.3151562194734	243.33288160585707	-144.8160475180464	549.4575619121765	29.243404379931697	-38.021809906641465	330.95759603825195	60.38610994735565
185	0.92	-0.4657614923122315	728.134532354954	243.34147387564886	-144.6614780844355	549.3014816831874	29.03935563915716	-37.97756246751661	330.7410688980085	60.01344141668376
186	0.925	-0.4387588696136217	727.954547505844	243.35037540518056	-144.5120502640819	549.1505875993757	28.83630846355476	-37.94368320630061	330.5278632361313	59.64935210291242
187	0.93	-0.412971740830445	727.7754248862508	243.3595589390347	-144.36769703317555	549.0049313323829	28.634424048690647	-37.91971322389947	330.31819452941977	59.2936227828112
188	0.935	-0.38838855441889003	727.5973809969205	243.36899551150157	-144.22834423401383	548.8645536916715	28.433854532799906	-37.90520138276848	330.11225269628324	58.94599918989417
189	0.94	-0.3649976899323513	727.420625162566	243.3786545905349	-144.09391142840104	548.729484864279	28.234743050731804	-37.89970516504545	329.9102021831403	58.60619444896456
190	0.945	-0.3427875107380955	727.2453590943675	243.38850422421442	-143.9643127670804	548.5997446841665	28.03722381383696	-37.902791450525335	329.71218216598857	58.273891622611586
191	0.95	-0.3217464166744426	727.0717764788737	243.3985111892439	-143.8394578712187	548.4753429300033	27.841422214120858	-37.914037212311875	329.5183068665947	57.94874636098024
192	0.955	-0.3018628964700782	726.9000625944609	243.40864114101728	-143.7192527219252	548.3562796501403	27.647454950953385	-37.933030128377496	329.32866598234364	57.630389645940014
193	0.96	-0.28312557974333313	726.7303939564146	243.4188587647875	-143.60360055376663	548.2425455134367	27.455430178605248	-37.95936910766672	329.143325228378	57.31843062060415
194	0.965	-0.2655232883960335	726.5629379916136	243.4291279274784	-143.49240274823538	548.1341221845255	27.265447672878633	-37.992664729788245	328.9623269902471	57.012459494995
195	0.97	-0.24904508721384033	726.3978527437044	243.43941182968592	-143.38555972314103	548.0309827220148	27.077599015110376	-38.032539597754614	328.78569108488085	56.71205051851524
196	0.975	-0.2336803334829526	726.235286609559	243.44967315742315	-143.2829718139263	547.9330919980428	26.891967791851485	-38.078628603644056	328.6134156272998	56.41676500976621
197	0.98	-0.21941872543157506	726.0753781077102	243.45987423317146	-143.18454014295395	547.8404071375278	26.708629808565803	-38.130579107475555	328.4454780000768	56.126154434153825
198	0.985	-0.20625034930376143	725.9182556793656	243.46997716581131	-143.09016747287416	547.7528779753761	26.52765331574228	-38.18805103000189	328.2818359221734	55.83976351963965
199	0.99	-0.19416572487312114	725.7640375224954	243.4799439990176	-142.99975904026044	547.6704475298368	26.349099245879096	-38.250716860536244	328.12242861339416	55.557133400927555
200	0.995	-0.18315584920442607	725.6128314593874	243.4897368577158	-142.91322336579677	547.5930524901231	26.173021459872306	-38.318261581332244	327.9671780503262	55.27780478232654
201	1.0	-0.17321223847242675	725.464734837964	243.49931809221093	-142.83047303740565	547.5206237163559	25.99946700142624	-38.390382510434705	327.8159903092687	55.001321109496665
202	1.005	-0.16432696764918533	725.3198344670465	243.50865041961285	-142.75142546283234	547.4530867498188	25.828476358196035	-38.466789065305456	327.6687569913092	54.72723174026687
203	1.01	-0.15649270787394945	725.1782065856478	243.51769706220026	-142.6760035883349	547.3903623314596	25.660083728473637	-38.54720244990479	327.52535672436	54.455095104712896
204	1.015	-0.14970276132308738	725.0399168662728	243.52642188237925	-142.60413658028125	547.3323669265178	25.494317292335598	-38.631355268271875	327.3856567366513	54.18448184469739
205	1.02	-0.14395109340184575	724.9050204520983	243.53478951391048	-142.53576046661465	547.2790132531137	25.331199486283378	-38.718991067995226	327.2495144958636	53.91497792310686
206	1.025	-0.1392323620846693	724.7735620277964	243.5427654890973	-142.47081873532414	547.2302108125921	25.17074728052286	-38.80986381729548	327.1167794077958	53.646187693067546
207	1.03	-0.13554194423661295	724.6455759236701	243.5503163616437	-142.40926288723944	547.1858664193772	25.012972458148475	-38.90373731975583	326.98729456819	53.37773691748836
208	1.035	-0.13287595875490066	724.5210862526577	243.55740982491275	-142.3510529406641	547.1458847280726	24.857881895617048	-39.00038457102856	326.8608985610831	53.10927572936191
209	1.04	-0.131231286376939	724.4001070796648	243.5640148253317	-142.2961578855638	547.110168755514	24.705477844016023	-39.099587062118395	326.7374272968192	52.840481523356374
210	1.045	-0.13060558600918112	724.282642622586	243.57010167071283	-142.24455608523738	547.0786203954772	24.55575821074916	-39.201134034092824	326.6167158826489	52.571061769351026
211	1.05	-0.13099730743995686	724.168687484272	243.5756421332779	-142.19623562361616	547.0511409237322	24.408716841378244	-39.30482168929613	326.4986005186506	52.300756738708316
212	1.055	-0.13240570030892881	724.0582269146153	243.58060954719326	-142.15119459656214	547.0276314911474	24.264343801471167	-39.41045236434467	326.3829204115442	52.02934213423535
213	1.06	-0.13483081921603013	723.9512371018174	243.58497890044455	-142.10944134576437	547.0079936025575	24.122625658413387	-39.517833670356964	326.26951969882606	51.756631614968676
214	1.065	-0.13827352486363184	723.8476854918281	243.58872692089867	-142.0709946340676	546.9921295791326	23.983545763240183	-39.6267776060217	326.1582493755411	51.4824792071192
215	1.07	-0.14273548113727172	723.7475311348447	243.59183215642233	-142.0358837613049	546.9799430020241	23.84708453264069	-39.737099649228234	326.0489692159151	51.20678159273896
216	1.075	-0.14821914804248384	723.6507250576874	243.59427504894572	-142.00414861994545	546.9713391351047	23.713219731369563	-39.84861783307901	325.9415496820102	50.929480267920134
217	1.08	-0.15472777042804964	723.5572106607782	243.5960380023797	-141.97583969011134	546.9662253246736	23.581926755378472	-39.96115181216925	325.8358738115312	50.65056356260871
218	1.085	-0.16226536243938985	723.4669241383813	243.59710544431596	-141.95101797375878	546.964511374068	23.453178916045832	-40.074521925056786	325.7318390769018	50.37006851441209
